<svg xmlns="http://www.w3.org/2000/svg" fill="none" viewBox="0 0 16 16"><path fill="#191919" fill-rule="evenodd" d="M6.1 1.7a2.934 2.934 0 0 1 3.8 0l4.184 3.557A2.6 2.6 0 0 1 15 7.238v6.01a1.75 1.75 0 0 1-1.75 1.75h-2.5A1.75 1.75 0 0 1 9 13.248v-2.65H7v2.65a1.75 1.75 0 0 1-1.75 1.75h-2.5A1.75 1.75 0 0 1 1 13.248v-6.01a2.6 2.6 0 0 1 .916-1.981zm2.504 1.524a.93.93 0 0 0-1.208 0L3.212 6.78A.6.6 0 0 0 3 7.238v5.76h2v-2.75c0-.911.738-1.65 1.65-1.65h2.7c.91 0 1.65.739 1.65 1.65v2.75h2v-5.76a.6.6 0 0 0-.212-.458z" clip-rule="evenodd"/></svg>