<svg xmlns="http://www.w3.org/2000/svg" fill="none" viewBox="0 0 20 12"><rect fill="#056DAE" rx="2"/><path fill="#fff" d="m7.289 7.847-.022.024c-.351.357-.758.547-1.177.547-.875 0-1.51-.657-1.51-1.56 0-.906.635-1.563 1.51-1.563.42 0 .826.19 1.177.55l.022.02.562-.68-.013-.017c-.469-.553-1.03-.823-1.72-.823-.693 0-1.326.232-1.784.653-.496.457-.757 1.098-.757 1.86 0 .76.261 1.401.757 1.857.458.423 1.091.654 1.784.654.69 0 1.251-.269 1.72-.823l.013-.018zm2.127-3.424h-.994v4.853h.994zm3.895 3.798c-.265.161-.513.243-.735.243-.322 0-.465-.17-.465-.547V5.343h1.01v-.914h-1.01V2.918l-.977.521v.99h-.84v.914h.84V8.08c0 .746.443 1.255 1.104 1.27.447.008.717-.124.88-.223l.01-.007.24-.936zm1.817-3.798h-.995v4.853h.995z"/><path fill="#ED1B2E" d="M15.753 3.64c-.83-1.244-2.36-2.123-3.995-2.122A4.91 4.91 0 0 0 7.76 3.639h1.143c.78-.804 1.79-1.24 2.855-1.24 1.044-.001 2.071.436 2.853 1.24z"/><path fill="#fff" d="M16.423 3.598a.474.474 0 0 1-.497-.486.47.47 0 0 1 .484-.497.474.474 0 0 1 .499.485.474.474 0 0 1-.486.498m-.011-.92a.41.41 0 0 0-.42.434.413.413 0 0 0 .43.424.413.413 0 0 0 .419-.436.41.41 0 0 0-.429-.423m.099.457.123.23-.083.002-.12-.225h-.118l.002.229h-.072l-.006-.543.22-.003c.097-.002.175.047.177.154a.15.15 0 0 1-.123.156m-.058-.247-.143.002.002.184h.136q.115 0 .113-.095-.004-.09-.108-.091"/></svg>