<svg xmlns="http://www.w3.org/2000/svg" fill="none" viewBox="0 0 24 24"><path fill="#191919" d="M17 9a1 1 0 1 0 0 2h3a1 1 0 1 0 0-2z"/><path fill="#191919" d="M5 2.222C5 .995 5.995 0 7.222 0h9.556C18.005 0 19 .995 19 2.222V6h2.778C23.005 6 24 6.995 24 8.222v8.556A2.22 2.22 0 0 1 21.778 19H19v2.778A2.22 2.22 0 0 1 16.778 24H7.222A2.22 2.22 0 0 1 5 21.778V19H2.222A2.22 2.22 0 0 1 0 16.778V8.222C0 6.995.995 6 2.222 6H5zM5 17v-3H4a1 1 0 1 1 0-2h16a1 1 0 1 1 0 2h-1v3h2.778c.123 0 .222-.1.222-.223V8.223C22 8.1 21.9 8 21.778 8H2.222C2.1 8 2 8.1 2 8.222v8.556c0 .122.1.222.222.222zm2 4.778c0 .123.1.222.222.222h9.556c.123 0 .222-.1.222-.222V14H7zM17 2.222C17 2.1 16.9 2 16.778 2H7.222C7.1 2 7 2.1 7 2.222V6h10z"/></svg>