<svg xmlns="http://www.w3.org/2000/svg" fill="none" viewBox="0 0 50 32"><rect x=".5" y=".5" fill="#fff" stroke="#191919" rx="1.5"/><path fill="#191919" d="m25.002 5.44-9.88 6.315a.94.94 0 0 0-.395 1.054.93.93 0 0 0 .89.677H34.41a.93.93 0 0 0 .889-.678.94.94 0 0 0-.396-1.053zm-6.185 6.17 6.186-3.954 6.2 3.955zm-.602 11.063v-7.125h1.85v7.125zm3.915-7.125v7.125h1.85v-7.125zm3.916 0v7.125h1.85v-7.125zm3.914 0v7.125h1.851v-7.125zm-15.269 10.09c0-.518.414-.938.925-.938H34.41c.51 0 .925.42.925.938a.93.93 0 0 1-.925.937H15.616a.93.93 0 0 1-.925-.937"/></svg>